<?xml version="1.0" encoding="utf-8"?>
<!-- Generator: Adobe Illustrator 23.0.6, SVG Export Plug-In . SVG Version: 6.00 Build 0)  -->
<svg version="1.1" xmlns="http://www.w3.org/2000/svg" xmlns:xlink="http://www.w3.org/1999/xlink" x="0px" y="0px"
	 viewBox="0 0 3727.8 1384.6" style="enable-background:new 0 0 3727.8 1384.6;" xml:space="preserve">
<style type="text/css">
	.st0{fill:#B7B7B7;}
	.st1{fill:#DDDDDD;}
	.st2{fill:none;stroke:#FFFFFF;stroke-width:2;stroke-miterlimit:10;}
</style>

<g id="B.3_x5F_Pietro5">
	<path class="st1" d="M1171.7,539.8l0.5,89.2l227-101.8l78.4-40.6c0,0,80.6,42.1,248.1,31.8c0,0,43.9,25.5,154.2,16.8l0.5-103.7
		c0,0-99.6,11.7-153.2-19.4c0,0-184.3,7.1-249.2-40.9l-150.6,87.8l-70.3,33.7l-24.9,17.9L1171.7,539.8z"/>
</g>
<g id="B.3_x5F_Pietro4">
	<path class="st1" d="M1172.2,629l227-101.8l78.4-40.6c0,0,86.9,44.6,248.1,31.8c0,0,39.5,24.7,154.2,16.8v87.5
		c0,0-106.2,7.5-153.3-12.2c0,0-140.1,13.5-249-25.7l-78.4,30.3v4.3l-227.5,77.4L1172.2,629z"/>
</g>
<g id="B.3_x5F_Pietro3">
	<path class="st1" d="M1879.9,622.8c0,0-108.4,8.4-153.3-12.2c0,0-150.3,12.6-249-25.7l-78.4,30.3v4.3l-227.5,77.4V772l227.5-61.2
		v-4.9l78.3-22.1c0,0,79.8,28.5,249,18.1c0,0,31.8,15.4,153.9,9L1879.9,622.8z"/>
</g>
<g id="B3._x5F_Pietro2">
	<path class="st1" d="M1171.7,770l227.5-59.2v-4.9l78.3-22.1c0,0,93.1,29.8,249,18.1c0,0,34.5,15.6,153.9,9V799
		c0,0-104.9,7.7-154.5-6c0,0-168.3,6.5-248.4-10.7l-78.4,12.6v5.5l-227.5,37V770z"/>
</g>
<g id="B3._x5F_Pietro1">
	<path class="st1" d="M1171.7,837.4l227.5-37v-5.5l78.4-12.6c0,0,95.9,17.4,248.4,10.7c0,0,47.9,13.8,154.5,6v88.7
		c0,0-90.4,6.2-153.9-2.2c0,0-131.2,8.2-249-6.7l-78.3,5.5v5.6l-227.5,16.6V837.4z"/>
</g>
<g id="B.3_x5F_Parter">
	<path class="st1" d="M1171.7,906.6l227.5-16.6v-5.6l78.3-5.5c0,0,115.7,15.1,249,6.7c0,0,65.5,8.7,153.9,2.2v87.5h-708.8
		L1171.7,906.6z"/>
</g>
<g id="Budynek_x5F_6">
	<path class="st2" d="M2529.6,975.7V394.6c0,0,108.2,22.6,267-15.4v596.6H2529.6z"/>
	<path class="st2" d="M2796.6,379.1c0,0,79.8,21.4,219.4-13.2v609.8h-219.4"/>
	<polyline class="st2" points="3016,366 3097.9,407.9 3249.4,461.7 3249.4,976 3016,976.2 	"/>
	<line class="st2" x1="3097.9" y1="407.9" x2="3097.9" y2="975.6"/>
	<path class="st2" d="M2529.6,417.1c0,0,75.3,21.7,267-13.3c0,0,89.9,14.5,219-12.2l40,19.2"/>
	<line class="st2" x1="3055.6" y1="386.2" x2="3055.6" y2="974.9"/>
	<path class="st2" d="M2529.6,492.4c0,0,113.4,18,267-12.3c0,0,115.5,13.2,219.4-10.2l39.7,17.3"/>
	<path class="st2" d="M2529.6,514.6c0,0,113.4,18,267-12.3c0,0,115.5,13.2,219.4-10.2l39.7,17.3"/>
	<path class="st2" d="M2529.6,590.2c0,0,113.2,14.6,267-11.3c0,0,115.5,14.2,219.4-9.2l39.7,13.3"/>
	<path class="st2" d="M2529.6,610.5c0,0,113.2,14.6,267-11.3c0,0,115.5,14.2,219.4-9.2l39.7,13.3"/>
	<path class="st2" d="M2529.6,685.6c0,0,114.4,11.7,267-8.3c0,0,117.3,9.5,219.4-5.2l39.7,8.3"/>
	<path class="st2" d="M2529.6,705.9c0,0,114.4,11.7,267-8.3c0,0,117.3,9.5,219.4-5.2l39.7,8.3"/>
	<path class="st2" d="M2529.6,779.7c0,0,113.2,9.9,267-4c0,0,118,7.4,219.4-4.2l39.7,8.3"/>
	<path class="st2" d="M2529.6,802.6c0,0,112.5,6,267-4c0,0,118,7.4,219.4-4.2l39.7,8.3"/>
	<path class="st2" d="M2529.6,877.5c0,0,113.3,3.9,267-0.3c0,0,116.8,4.1,219.4-2.2l39.7,2.2"/>
	<path class="st2" d="M2529.6,897.4c0,0,113.3,3.9,267-0.3c0,0,116.8,4.1,219.4-2.2l39.7,2.2"/>
	<polyline class="st2" points="2796.6,403.8 2761.6,423.8 2761.6,486.3 	"/>
	<polyline class="st2" points="2796.6,502.3 2761.6,519.9 2761.6,584.2 	"/>
	<polyline class="st2" points="2796.6,599.3 2761.6,614.7 2761.6,681.5 	"/>
	<polyline class="st2" points="2796.6,697.6 2761.6,707.7 2761.6,778.6 	"/>
	<polyline class="st2" points="2796.6,798.6 2761.6,804.4 2761.6,878.1 	"/>
	<line class="st2" x1="2761.6" y1="898" x2="2761.6" y2="976"/>
	<polyline class="st2" points="2761.6,423.8 2543.4,439.8 2529.6,417.1 	"/>
	<line class="st2" x1="2543.4" y1="439.8" x2="2543.4" y2="494"/>
	<polyline class="st2" points="2761.6,519.9 2543.4,530.8 2529.6,514.6 	"/>
	<line class="st2" x1="2543.4" y1="530.8" x2="2543.4" y2="591.5"/>
	<polyline class="st2" points="2761.6,614.7 2543.4,623.4 2529.6,610.5 	"/>
	<line class="st2" x1="2543.4" y1="623.4" x2="2543.4" y2="686.7"/>
	<polyline class="st2" points="2761.6,707.7 2543.4,715 2529.6,705.9 	"/>
	<line class="st2" x1="2543.4" y1="715" x2="2543.4" y2="780.7"/>
	<line class="st2" x1="2761.6" y1="804.4" x2="2638.7" y2="804.4"/>
	<polyline class="st2" points="2529.8,802.9 2541.7,805.5 2541.7,878.1 	"/>
	<line class="st2" x1="2541.7" y1="805.5" x2="2624.7" y2="804.4"/>
	<line class="st2" x1="2541.6" y1="897.8" x2="2541.6" y2="976.2"/>
	<polyline class="st2" points="2796.6,422.2 3016,400 3055.6,418.1 	"/>
	<polyline class="st2" points="2796.6,519.8 3016,497.7 3055.6,514.7 	"/>
	<polyline class="st2" points="2796.6,613.3 3016,598.8 3055.6,611.9 	"/>
	<polyline class="st2" points="2796.6,706.5 3016,696 3055.6,704.1 	"/>
	<polyline class="st2" points="2553.8,495.1 2553.8,449.1 2689.6,439.8 2689.6,494.8 	"/>
	<line class="st2" x1="2621.7" y1="444.5" x2="2621.7" y2="497.7"/>
	<polyline class="st2" points="2715.9,492.4 2715.9,438.3 2757.8,435.5 2757.8,486.9 	"/>
	<line class="st2" x1="2736.9" y1="436.9" x2="2736.9" y2="489.9"/>
	<polyline class="st2" points="2553.8,592.3 2553.8,540.6 2689.6,531.3 2689.6,591.5 	"/>
	<line class="st2" x1="2621.7" y1="536" x2="2621.7" y2="594.2"/>
	<polyline class="st2" points="2715.9,589.5 2715.9,529.7 2757.8,527 2757.8,584.7 	"/>
	<line class="st2" x1="2736.9" y1="528.4" x2="2736.9" y2="587.3"/>
	<polyline class="st2" points="2554.6,687.4 2554.6,633.7 2689.8,627.1 2689.8,687.3 	"/>
	<line class="st2" x1="2622.2" y1="630.4" x2="2622.2" y2="688.7"/>
	<polyline class="st2" points="2716.1,685.7 2716.1,626 2757.8,624.1 2757.8,681.8 	"/>
	<line class="st2" x1="2737" y1="625.1" x2="2737" y2="684"/>
	<polyline class="st2" points="2554.6,781.3 2554.6,725.7 2689.8,720.3 2689.8,782.2 	"/>
	<line class="st2" x1="2622.2" y1="723" x2="2622.2" y2="783.2"/>
	<polyline class="st2" points="2716.1,781.2 2716.1,719.5 2757.8,718 2757.8,778.8 	"/>
	<line class="st2" x1="2737" y1="718.7" x2="2737" y2="780.1"/>
	<polyline class="st2" points="2554.7,878.1 2554.6,815.6 2689.8,812.9 2689.9,879 	"/>
	<line class="st2" x1="2622.2" y1="814.3" x2="2622.3" y2="878.5"/>
	<polyline class="st2" points="2716.2,878.5 2716.1,812.6 2757.8,811.9 2757.9,876.9 	"/>
	<line class="st2" x1="2737" y1="812.3" x2="2737.1" y2="877.8"/>
	<polyline class="st2" points="2554.7,975.6 2554.6,907.6 2689.8,906.2 2689.9,975.6 	"/>
	<line class="st2" x1="2622.2" y1="906.9" x2="2622.3" y2="975.7"/>
	<polyline class="st2" points="2716.2,975.4 2716.1,906.2 2757.8,905.9 2757.9,975.6 	"/>
	<line class="st2" x1="2737" y1="906.1" x2="2737.1" y2="975.6"/>
	<polyline class="st2" points="2796.6,434.1 2866.2,428.5 2866.2,483.8 	"/>
	<line class="st2" x1="2824.3" y1="431.8" x2="2824.3" y2="482.3"/>
	<polyline class="st2" points="2879.7,483.8 2879.7,427.2 3003.8,413.2 3003.8,472.5 	"/>
	<line class="st2" x1="2940.2" y1="420.4" x2="2940.2" y2="481.2"/>
	<polyline class="st2" points="2796.6,528.8 2866.2,524 2866.2,583.1 	"/>
	<line class="st2" x1="2824.3" y1="526.9" x2="2824.3" y2="581.3"/>
	<polyline class="st2" points="2879.7,583.1 2879.7,522.9 3003.8,510.3 3003.8,572.3 	"/>
	<line class="st2" x1="2940.2" y1="516.7" x2="2940.2" y2="580.8"/>
	<polyline class="st2" points="2796.6,624.6 2866.2,621.6 2866.2,680.6 	"/>
	<line class="st2" x1="2824.3" y1="623.4" x2="2824.3" y2="679"/>
	<polyline class="st2" points="2879.7,680.3 2879.7,620.8 3003.9,611.3 3003.9,673.3 	"/>
	<line class="st2" x1="2940.3" y1="616.2" x2="2940.3" y2="679.1"/>
	<polyline class="st2" points="2796.6,717.9 2866.2,716.2 2866.2,778 	"/>
	<line class="st2" x1="2824.3" y1="717.2" x2="2824.3" y2="777.2"/>
	<polyline class="st2" points="2879.7,778 2879.7,715.7 3003.9,708.5 3003.9,772.8 	"/>
	<line class="st2" x1="2940.3" y1="712.2" x2="2940.3" y2="777"/>
	<polyline class="st2" points="2796.6,813.1 2866.2,812.6 2866.2,878.4 	"/>
	<line class="st2" x1="2824.3" y1="812.9" x2="2824.3" y2="878"/>
	<polyline class="st2" points="2879.7,878.7 2879.7,812.4 3003.9,807.6 3003.9,875.8 	"/>
	<line class="st2" x1="2940.3" y1="810" x2="2940.3" y2="877.8"/>
	<polyline class="st2" points="2796.6,908.2 2866.2,909.6 2866.2,976.2 	"/>
	<line class="st2" x1="2824.3" y1="908.7" x2="2824.3" y2="976.2"/>
	<polyline class="st2" points="2879.7,976.2 2879.7,909.7 3003.9,908.1 3003.9,976 	"/>
	<line class="st2" x1="2940.3" y1="908.9" x2="2940.3" y2="976.3"/>
</g>
<g id="Budynek_x5F_5">
	<polygon class="st2" points="2529.6,975.8 2474.7,975.8 2474.7,506 2529.6,512.8 	"/>
	<path class="st2" d="M2474.7,506c0,0-42.7,30.1-183.1,39.4v430.4h183.1"/>
	<polyline class="st2" points="2291.6,560.4 2281,562.2 2282.3,975.8 2298.7,975.8 	"/>
	<path class="st2" d="M2529.6,591.8l-54.9-3.4c0,0-58.9,28.5-183.1,29.6"/>
	<path class="st2" d="M2529.6,668.4l-54.9-3.4c0,0-58.9,20.8-183.1,21.9"/>
	<path class="st2" d="M2529.6,681.6l-54.9-3.4c0,0-58.9,20.8-183.1,21.9"/>
	<path class="st2" d="M2529.6,742.3l-54.9-1.4c0,0-58.9,15.5-183.1,16.7"/>
	<path class="st2" d="M2529.6,754.7l-54.9-1.4c0,0-58.9,15.5-183.1,16.7"/>
	<path class="st2" d="M2529.6,817.7l-54.9-0.4c0,0-58.9,8.1-183.1,9.2"/>
	<path class="st2" d="M2529.6,830l-54.9-0.4c0,0-58.9,8.1-183.1,9.2"/>
	<path class="st2" d="M2529.6,893.8l-54.9-0.4c0,0-58.9,2.5-183.1,3.6"/>
	<path class="st2" d="M2529.6,905.7l-54.9-0.4c0,0-58.9,2.5-183.1,3.6"/>
	<path class="st2" d="M2529.6,530.8l-54.9-5.5c0,0-67.2,30.2-183.1,35.1"/>
	<path class="st2" d="M2529.6,604.9l-54.9-4.5c0,0-51.1,24.4-183.1,29.7"/>
	<polyline class="st2" points="2377.4,612.9 2377.4,551.5 2398.8,552.8 2398.8,609.1 	"/>
	<polyline class="st2" points="2377.4,682.5 2377.4,623.1 2398.8,623.8 2398.8,680.1 	"/>
	<polyline class="st2" points="2377.4,754.1 2377.4,695.9 2398.8,696.6 2398.8,752.8 	"/>
	<polyline class="st2" points="2377.4,824.7 2377.4,766.4 2398.8,767.1 2398.8,823.4 	"/>
	<polyline class="st2" points="2377.4,895.9 2377.4,836.7 2398.8,837.5 2398.8,895.5 	"/>
	<polyline class="st2" points="2377.4,976 2377.4,907.9 2398.8,907.3 2398.8,975.6 	"/>
	<polyline class="st2" points="2291.6,560.4 2321.7,565.8 2377.4,557.8 	"/>
	<polyline class="st2" points="2398.8,552.8 2431.4,545.4 2431.4,602.4 	"/>
	<polyline class="st2" points="2431.4,545.4 2451.6,548 2451.6,596.8 	"/>
	<line class="st2" x1="2451.6" y1="548" x2="2474.7" y2="541.4"/>
	<polyline class="st2" points="2291.6,630.2 2321.7,634.9 2377.4,628.6 	"/>
	<polyline class="st2" points="2398.8,623.8 2431.4,618 2431.4,675.2 	"/>
	<polyline class="st2" points="2431.4,618 2451.6,618.8 2451.6,671.1 	"/>
	<line class="st2" x1="2451.6" y1="618.8" x2="2474.7" y2="612.2"/>
	<polyline class="st2" points="2291.6,700 2321.7,704.7 2377.4,700.1 	"/>
	<polyline class="st2" points="2398.8,696.6 2431.4,692.8 2431.4,748.6 	"/>
	<polyline class="st2" points="2431.4,692.8 2451.6,691.5 2451.6,745.5 	"/>
	<line class="st2" x1="2451.6" y1="691.5" x2="2474.7" y2="684.9"/>
	<polyline class="st2" points="2291.6,769.9 2321.9,772.1 2377.4,768.4 	"/>
	<polyline class="st2" points="2398.8,767.1 2433.6,763.2 2450.5,763.2 2474.7,759.7 	"/>
	<line class="st2" x1="2433.6" y1="763.2" x2="2433.6" y2="821.2"/>
	<line class="st2" x1="2450.5" y1="763.2" x2="2450.5" y2="819.8"/>
	<line class="st2" x1="2433.6" y1="835.8" x2="2433.6" y2="894.7"/>
	<line class="st2" x1="2450.5" y1="835.8" x2="2450.5" y2="894.2"/>
	<line class="st2" x1="2433.6" y1="906.4" x2="2433.6" y2="976"/>
	<line class="st2" x1="2450.5" y1="906.4" x2="2450.5" y2="975.5"/>
	<polyline class="st2" points="2398.8,837.5 2450.5,835.5 2474.7,834.2 	"/>
	<line class="st2" x1="2321.7" y1="565.8" x2="2321.7" y2="617.2"/>
	<line class="st2" x1="2321.7" y1="634.9" x2="2321.7" y2="686.2"/>
	<line class="st2" x1="2321.7" y1="704.7" x2="2321.7" y2="757"/>
	<line class="st2" x1="2321.9" y1="772.1" x2="2321.9" y2="826.5"/>
	<line class="st2" x1="2321.9" y1="838.3" x2="2321.9" y2="897"/>
	<line class="st2" x1="2321.7" y1="908.5" x2="2321.7" y2="975.8"/>
	<polyline class="st2" points="2377.4,567.2 2333.4,573.9 2333.4,616.5 	"/>
	<line class="st2" x1="2363.1" y1="569.4" x2="2363.1" y2="614"/>
	<polyline class="st2" points="2377.4,637.6 2333.4,643.2 2333.4,685.9 	"/>
	<line class="st2" x1="2363.1" y1="639.7" x2="2363.1" y2="683.8"/>
	<polyline class="st2" points="2377.4,706.7 2333.4,712.3 2333.4,756.6 	"/>
	<line class="st2" x1="2363.1" y1="708.8" x2="2363.1" y2="755.1"/>
	<polyline class="st2" points="2377.4,776.9 2333.4,779.5 2333.4,825.8 	"/>
	<line class="st2" x1="2363.1" y1="778" x2="2363.1" y2="824.7"/>
	<polyline class="st2" points="2377.4,847.6 2333.4,849.2 2333.4,896.4 	"/>
	<line class="st2" x1="2363.1" y1="848.1" x2="2363.1" y2="896.1"/>
	<polyline class="st2" points="2377.4,917 2333.4,917.6 2333.4,975.5 	"/>
	<line class="st2" x1="2363.1" y1="917.5" x2="2363.1" y2="976.1"/>
	<line class="st2" x1="2529.6" y1="530.8" x2="2474.7" y2="537.3"/>
	<polyline class="st2" points="2515.2,590.9 2515.2,538.3 2479.1,543.4 2479.1,588.7 	"/>
	<line class="st2" x1="2529.6" y1="604.8" x2="2474.7" y2="611.3"/>
	<polyline class="st2" points="2515.2,667 2515.2,612.3 2479.1,617.4 2479.1,664.8 	"/>
	<line class="st2" x1="2529.6" y1="681.5" x2="2474.7" y2="688"/>
	<polyline class="st2" points="2515.2,742 2515.2,688.1 2479.1,693.1 2479.1,740.5 	"/>
	<line class="st2" x1="2529.6" y1="755.1" x2="2474.7" y2="759.7"/>
	<polyline class="st2" points="2515.2,817.6 2515.2,761.7 2479.1,766.7 2479.1,817.3 	"/>
	<line class="st2" x1="2529.6" y1="830.2" x2="2474.7" y2="832.5"/>
	<polyline class="st2" points="2515.2,893.6 2515.2,836.8 2479.1,839.8 2479.1,893.2 	"/>
	<polyline class="st2" points="2515.2,975.9 2515.2,913.2 2479.1,913.3 2479.1,975.6 	"/>
</g>
<g id="Budynek_x5F_4">
	<polyline class="st2" points="1880.5,558.6 1948,525.2 1948,975.6 1880.5,975.6 	"/>
	<path class="st2" d="M1948,525.2c0,0,79.4,15.8,153.3,8.9v441.5H1948"/>
	<path class="st2" d="M2101.4,534.1c0,0,11,14.5,124.9,13.6v427.9h-124.9"/>
	<polygon class="st2" points="1885.1,572 1885.1,638.6 1891.4,636 1891.4,567.8 	"/>
	<line class="st2" x1="1885.1" y1="614.6" x2="1891.4" y2="611.9"/>
	<polygon class="st2" points="1885.1,649.6 1885.1,705.7 1891.4,703.1 1891.4,645.3 	"/>
	<line class="st2" x1="1885.1" y1="681.7" x2="1891.4" y2="679"/>
	<polygon class="st2" points="1885.1,718.4 1885.1,774.5 1891.4,773.8 1891.4,716.1 	"/>
	<line class="st2" x1="1885.1" y1="750.5" x2="1891.4" y2="749.7"/>
	<polygon class="st2" points="1885.1,785.3 1885.1,841.4 1891.4,840.7 1891.4,784.1 	"/>
	<line class="st2" x1="1885.1" y1="817.4" x2="1891.4" y2="816.6"/>
	<polygon class="st2" points="1885.1,853.2 1885.1,910.5 1891.4,909.8 1891.4,853.2 	"/>
	<line class="st2" x1="1885.1" y1="886.5" x2="1891.4" y2="885.7"/>
	<rect x="1885.1" y="920.4" class="st2" width="6.3" height="55.1"/>
	<line class="st2" x1="1885.1" y1="953.8" x2="1891.4" y2="953.8"/>
	<line class="st2" x1="1935.7" y1="531.3" x2="1935.7" y2="975.6"/>
	<path class="st2" d="M1935.7,617.3l12.7-6.5c0,0,52,11.5,153,7.3c0,0,36.4,12.4,124.9,9.5"/>
	<path class="st2" d="M1935.3,686.3l12.7-3.5c0,0,52.4,10.2,153.3,6c0,0,36.4,12.4,124.9,9.5"/>
	<path class="st2" d="M1935.3,759.1l12.7-3.5c0,0,51.5,5.8,153.3,6c0,0,36.4,7.8,124.9,5"/>
	<path class="st2" d="M1935.3,830.5l12.7-1.5c0,0,51.5,3.8,153.3,4c0,0,36.4,5.8,124.9,3"/>
	<path class="st2" d="M1935.3,904.3l12.7-0.5c0,0,51.5,0.8,153.3,1c0,0,36.4,3.2,124.9,0.4"/>
	<polyline class="st2" points="2046.5,618.8 2046.5,567.8 1944.8,554.2 1944.8,612.6 	"/>
	<line class="st2" x1="1997.2" y1="561.2" x2="1997.2" y2="616.9"/>
	<line class="st2" x1="1944.8" y1="563.8" x2="2046.5" y2="577"/>
	<polyline class="st2" points="2057.8,618.9 2057.8,567.8 2077.8,567.8 2077.8,618.7 	"/>
	<line class="st2" x1="2057.8" y1="577" x2="2077.8" y2="577"/>
	<path class="st2" d="M2226.2,565.5c-89.8,0-124.9-13.6-124.9-13.6c-101,4.2-153.3-11-153.3-11l-11.3,6.6l108.4,13.7h35.7l20.6-9.3"
		/>
	<path class="st2" d="M2101.4,630.2l-47.7,10.2l-116.3-9.2l10.7-4.5C1948,626.7,2006.1,637.6,2101.4,630.2c0,0,35.1,13.6,124.9,13.6
		"/>
	<line class="st2" x1="2080.8" y1="561.2" x2="2080.8" y2="618.9"/>
	<polyline class="st2" points="2101.4,571.4 2132.3,571.4 2132.3,624.1 	"/>
	<line class="st2" x1="2132.3" y1="580.2" x2="2101.4" y2="580.2"/>
	<line class="st2" x1="2112.9" y1="580.2" x2="2112.9" y2="620.9"/>
	<polyline class="st2" points="2139.5,625 2139.5,571.4 2212.7,571.4 2212.7,627.9 	"/>
	<line class="st2" x1="2139.5" y1="580.2" x2="2212.7" y2="580.2"/>
	<line class="st2" x1="2159.5" y1="580.2" x2="2159.5" y2="626.7"/>
	<line class="st2" x1="2101.4" y1="563" x2="2211" y2="565.4"/>
	<polyline class="st2" points="1944.5,683.8 1944.5,638.6 2019.9,645.3 2019.9,689.3 	"/>
	<line class="st2" x1="1997.2" y1="643.8" x2="1997.2" y2="688.2"/>
	<polyline class="st2" points="2027.4,689.5 2027.4,645.8 2045.8,646.9 2045.8,689.8 	"/>
	<line class="st2" x1="2033.3" y1="646.2" x2="2033.3" y2="689.7"/>
	<polyline class="st2" points="1944.5,756.6 1944.5,709.2 2019.9,715.9 2019.9,759.9 	"/>
	<line class="st2" x1="1997.2" y1="714.4" x2="1997.2" y2="758.7"/>
	<polyline class="st2" points="2027.4,760.1 2027.4,716.3 2045.8,717.5 2045.8,760.4 	"/>
	<line class="st2" x1="2033.3" y1="716.7" x2="2033.3" y2="760.2"/>
	<polyline class="st2" points="1944.5,829 1944.5,781.6 2019.9,788.3 2019.9,832.3 	"/>
	<line class="st2" x1="1997.2" y1="786.8" x2="1997.2" y2="831.2"/>
	<polyline class="st2" points="2027.4,832.5 2027.4,788.8 2045.8,789.9 2045.8,832.8 	"/>
	<line class="st2" x1="2033.3" y1="789.1" x2="2033.3" y2="832.7"/>
	<polyline class="st2" points="1944.5,903.9 1944.5,853.2 2019.9,857.3 2019.9,904.5 	"/>
	<line class="st2" x1="1997.2" y1="856.6" x2="1997.2" y2="904.2"/>
	<polyline class="st2" points="2027.4,904.5 2027.4,857.5 2045.8,858 2045.8,904.2 	"/>
	<line class="st2" x1="2033.3" y1="857.7" x2="2033.3" y2="904.4"/>
	<polyline class="st2" points="1944.5,974.9 1944.5,924.3 2019.9,926.4 2019.9,975.6 	"/>
	<line class="st2" x1="1997.2" y1="925.7" x2="1997.2" y2="975.2"/>
	<polyline class="st2" points="2027.4,975.5 2027.4,926.6 2045.8,926.6 2045.8,975.2 	"/>
	<line class="st2" x1="2033.3" y1="926.8" x2="2033.3" y2="975.5"/>
	<line class="st2" x1="2053.6" y1="640.5" x2="2053.6" y2="689.9"/>
	<polyline class="st2" points="2101.4,650.4 2132.3,650.4 2132.3,694.9 	"/>
	<line class="st2" x1="2112.9" y1="650.4" x2="2112.9" y2="691.7"/>
	<polyline class="st2" points="2139.5,695.8 2139.5,650.4 2212.7,651.5 2212.7,698.8 	"/>
	<path class="st2" d="M2212.7,571.4"/>
	<line class="st2" x1="2101.4" y1="642.4" x2="2195.3" y2="643.3"/>
	<path class="st2" d="M2101.4,704.8l-47.7,4.5l-115.7-6.8l10-3.7C1948,698.8,2000.4,709,2101.4,704.8c0,0,36.4,11.4,124.9,8.5"/>
	<line class="st2" x1="2053.6" y1="709.3" x2="2053.6" y2="761"/>
	<path class="st2" d="M2101.4,775.3l-47.7,4.5l-115.7-6.8l10-3.7C1948,769.3,2000.4,779.5,2101.4,775.3c0,0,36.4,9.1,124.9,6.3"/>
	<line class="st2" x1="2053.6" y1="779.8" x2="2053.6" y2="832.6"/>
	<path class="st2" d="M1935.7,843.4l12.3-2c0,0,55.6,7,153.3,6c0,0,36.4,5.6,124.9,2.7"/>
	<path class="st2" d="M1935.7,917.8l12.3-0.6c0,0,55.6,3.1,153.3,2.1c0,0,36.4,2.7,124.9-0.2"/>
	<line class="st2" x1="2053.6" y1="847.3" x2="2053.6" y2="904.8"/>
	<line class="st2" x1="2159.5" y1="650.7" x2="2159.5" y2="697.5"/>
	<polyline class="st2" points="2101.4,720.9 2132.3,720.9 2132.3,765.3 	"/>
	<line class="st2" x1="2112.9" y1="720.9" x2="2112.9" y2="763.4"/>
	<polyline class="st2" points="2139.5,766.2 2139.5,720.9 2212.7,722 2212.7,767 	"/>
	<line class="st2" x1="2159.5" y1="721.2" x2="2159.5" y2="766.8"/>
	<polyline class="st2" points="2101.4,790.5 2132.3,790.5 2132.3,835 	"/>
	<line class="st2" x1="2112.9" y1="790.5" x2="2112.9" y2="834.3"/>
	<polyline class="st2" points="2139.5,835.9 2139.5,790.5 2212.7,791.6 2212.7,836.6 	"/>
	<line class="st2" x1="2159.5" y1="790.8" x2="2159.5" y2="836.4"/>
	<polyline class="st2" points="2101.4,860.3 2132.3,860.3 2132.3,906.2 	"/>
	<line class="st2" x1="2112.9" y1="860.3" x2="2112.9" y2="905.5"/>
	<polyline class="st2" points="2139.5,906.2 2139.5,860.3 2212.7,861.4 2212.7,905.5 	"/>
	<line class="st2" x1="2159.5" y1="860.6" x2="2159.5" y2="906.2"/>
	<polyline class="st2" points="2101.4,929.5 2132.3,929.5 2132.3,975.4 	"/>
	<line class="st2" x1="2112.9" y1="929.5" x2="2112.9" y2="975.4"/>
	<polyline class="st2" points="2139.5,975.4 2139.5,929.5 2212.7,930.6 2212.7,975.6 	"/>
	<line class="st2" x1="2159.5" y1="929.8" x2="2159.5" y2="975.4"/>
	<line class="st2" x1="2053.6" y1="919.5" x2="2053.6" y2="975.6"/>
</g>
<g id="Budynek_x5F_3">
	<polygon class="st2" points="1171.7,975.4 1171.7,540 1232.9,509.9 1258,492.4 1351.4,446.5 1477.5,371 1477.5,975.4 	"/>
	<path class="st2" d="M1477.5,371c0,0,54.8,48.5,249,40.6c0,0,37.5,28.8,153.9,20.4v543.4h-403"/>
	<path class="st2" d="M1880.5,535.2c-121.6,7-153.9-16.8-153.9-16.8c-171.1,10.7-249-31.8-249-31.8l-78.4,40.6"/>
	<path class="st2" d="M1880.5,622.8c-121.6,7-153.9-12.2-153.9-12.2c-171.1,10.7-249-25.7-249-25.7l-78.4,30.3"/>
	<path class="st2" d="M1880.5,710.9c-121.6,7-153.9-9-153.9-9c-171.1,10.7-249-18.5-249-18.5l-78.4,22.2"/>
	<path class="st2" d="M1880.5,799c-121.6,7-153.9-6.1-153.9-6.1c-170.7,6.4-249-11.4-249-11.4l-78.4,13.3"/>
	<path class="st2" d="M1880.5,887.7c-109.9,5.8-153.9-2.2-153.9-2.2c-170.7,6.4-249-6.7-249-6.7l-78.3,5.5"/>
	<path class="st2" d="M1880.5,453.4c-118.5,7.7-153.9-19.3-153.9-19.3c-164.4,10.6-249-36.5-249-36.5l-78.4,42.7"/>
	<path class="st2" d="M1880.5,553.5c-118.5,7.7-153.9-14.2-153.9-14.2c-164.4,10.6-249-30.6-249-30.6l-78.4,36.1"/>
	<polyline class="st2" points="1399.2,634.9 1406.7,636.1 1447.4,621.9 1477.5,627.6 	"/>
	<path class="st2" d="M1880.5,641c-118.5,7.7-153.9-10.7-153.9-10.7c-164.4,10.6-249-24-249-24l-78.4,28.6"/>
	<path class="st2" d="M1880.5,728.5c-118.5,7.7-153.9-6.5-153.9-6.5c-172.8,5.9-249-16.5-249-16.5l-78.4,19.5"/>
	<path class="st2" d="M1880.5,819.2c-115.2,3.6-153.9-6.5-153.9-6.5c-172.8,2.8-249-9.8-249-9.8l-78.4,11.5"/>
	<path class="st2" d="M1880.5,906.3c-115.2,3.6-153.9-1.4-153.9-1.4c-172.8,2.8-249-6.5-249-6.5l-78.4,3.9"/>
	<polyline class="st2" points="1726.6,434.1 1656.6,451.4 1477.6,416.7 	"/>
	<line class="st2" x1="1656.6" y1="451.4" x2="1656.6" y2="520"/>
	<polyline class="st2" points="1650.8,519.8 1650.8,459.9 1619.2,454.8 1619.2,518.2 	"/>
	<polyline class="st2" points="1608.6,517.4 1608.6,453.1 1500.6,432 1500.6,496 	"/>
	<line class="st2" x1="1555.4" y1="442.7" x2="1555.4" y2="510.1"/>
	<line class="st2" x1="1635.9" y1="457.5" x2="1635.9" y2="519.3"/>
	<line class="st2" x1="1656.6" y1="553.2" x2="1656.6" y2="612.6"/>
	<polyline class="st2" points="1650.8,612.4 1650.8,561.6 1619.2,556.5 1619.2,611.2 	"/>
	<polyline class="st2" points="1608.6,610.4 1608.6,554.8 1500.6,533.7 1500.6,592.8 	"/>
	<line class="st2" x1="1555.4" y1="544.4" x2="1555.4" y2="604.7"/>
	<line class="st2" x1="1635.9" y1="559.2" x2="1635.9" y2="611.9"/>
	<polyline class="st2" points="1722.8,518.6 1722.8,454.8 1754.5,460.9 1754.5,528.7 	"/>
	<polyline class="st2" points="1761.4,530.2 1761.4,462.3 1860,481.4 1860,536.2 	"/>
	<line class="st2" x1="1736.8" y1="457.5" x2="1736.8" y2="523.4"/>
	<line class="st2" x1="1809.5" y1="471.6" x2="1809.5" y2="535.8"/>
	<polyline class="st2" points="1722.8,610.8 1722.8,558 1754.5,564.1 1754.5,618.7 	"/>
	<polyline class="st2" points="1761.4,619.8 1761.4,565.5 1860,584.6 1860,623.9 	"/>
	<line class="st2" x1="1736.8" y1="560.7" x2="1736.8" y2="614.6"/>
	<line class="st2" x1="1809.5" y1="574.8" x2="1809.5" y2="623.5"/>
	<polyline class="st2" points="1722.8,702.1 1722.8,652.5 1754.5,654.3 1754.5,708.9 	"/>
	<polyline class="st2" points="1761.4,709.5 1761.4,655.8 1860,664.3 1860,711.8 	"/>
	<line class="st2" x1="1736.8" y1="653.3" x2="1736.8" y2="704.9"/>
	<line class="st2" x1="1809.5" y1="659.9" x2="1809.5" y2="712.5"/>
	<polyline class="st2" points="1722.8,793.1 1722.8,741 1754.5,742.9 1754.5,798.2 	"/>
	<polyline class="st2" points="1761.4,799 1761.4,744.3 1860,749.2 1860,800.4 	"/>
	<line class="st2" x1="1736.8" y1="741.8" x2="1736.8" y2="795.4"/>
	<line class="st2" x1="1809.5" y1="746.7" x2="1809.5" y2="801.1"/>
	<polyline class="st2" points="1722.8,885.7 1722.8,827.1 1754.5,829 1754.5,888.4 	"/>
	<polyline class="st2" points="1761.4,888.8 1761.4,829 1860,833.8 1860,888.4 	"/>
	<line class="st2" x1="1736.8" y1="827.9" x2="1736.8" y2="887.1"/>
	<line class="st2" x1="1809.5" y1="831.3" x2="1809.5" y2="889.9"/>
	<polyline class="st2" points="1722.8,975.4 1722.8,912.4 1754.5,914.3 1754.5,975.4 	"/>
	<polyline class="st2" points="1761.4,975.4 1761.4,914.3 1860,919.1 1860,975.4 	"/>
	<line class="st2" x1="1736.8" y1="913.2" x2="1736.8" y2="975.4"/>
	<line class="st2" x1="1809.5" y1="916.6" x2="1809.5" y2="975.4"/>
	<polyline class="st2" points="1759.4,446.7 1865.2,472.9 1880.5,453.4 	"/>
	<line class="st2" x1="1656.6" y1="644.9" x2="1656.6" y2="704.3"/>
	<polyline class="st2" points="1650.8,704.1 1650.8,653.3 1619.2,648.2 1619.2,703.6 	"/>
	<polyline class="st2" points="1608.6,703.2 1608.6,646.5 1500.6,625.4 1500.6,690 	"/>
	<line class="st2" x1="1555.4" y1="636.1" x2="1555.4" y2="698.9"/>
	<line class="st2" x1="1635.9" y1="650.9" x2="1635.9" y2="703.5"/>
	<polyline class="st2" points="1650.8,794.1 1650.8,739.2 1619.2,738.2 1619.2,793.6 	"/>
	<polyline class="st2" points="1608.6,793.2 1608.6,736.5 1500.6,726.1 1500.6,785.4 	"/>
	<line class="st2" x1="1555.4" y1="731.4" x2="1555.4" y2="791"/>
	<line class="st2" x1="1635.9" y1="738.7" x2="1635.9" y2="793.6"/>
	<polyline class="st2" points="1650.8,887.1 1650.8,827.5 1619.2,826.5 1619.2,887.5 	"/>
	<polyline class="st2" points="1608.6,887.1 1608.6,826 1500.6,820 1500.6,881.7 	"/>
	<line class="st2" x1="1555.4" y1="823.1" x2="1555.4" y2="885.5"/>
	<line class="st2" x1="1635.9" y1="827" x2="1635.9" y2="887.4"/>
	<polyline class="st2" points="1650.8,975.4 1650.8,915.1 1619.2,914.2 1619.2,975.1 	"/>
	<polyline class="st2" points="1608.6,974.7 1608.6,913.7 1500.6,907.6 1500.6,975.4 	"/>
	<line class="st2" x1="1555.4" y1="910.7" x2="1555.4" y2="975.4"/>
	<line class="st2" x1="1635.9" y1="914.7" x2="1635.9" y2="975"/>
	<line class="st2" x1="1656.6" y1="730.9" x2="1656.6" y2="794.7"/>
	<polyline class="st2" points="1759.4,549.3 1863.9,570.7 1880.5,553.5 	"/>
	<polyline class="st2" points="1759.4,638.6 1863.9,658.1 1880.5,640.9 	"/>
	<line class="st2" x1="1654.9" y1="818" x2="1654.9" y2="887.5"/>
	<line class="st2" x1="1865.2" y1="472.9" x2="1865.2" y2="536.2"/>
	<line class="st2" x1="1863.9" y1="658.1" x2="1863.9" y2="711.7"/>
	<polyline class="st2" points="1761.4,728.4 1864.4,738.7 1880.5,728.5 	"/>
	<line class="st2" x1="1864.4" y1="738.7" x2="1864.4" y2="799.6"/>
	<polyline class="st2" points="1764,817.6 1863.9,822.8 1880.5,819.2 	"/>
	<line class="st2" x1="1863.9" y1="822.8" x2="1863.9" y2="888.5"/>
	<polygon class="st2" points="1192.2,546.9 1234.2,527.8 1234.2,599.8 1192.2,618.6 	"/>
	<polyline class="st2" points="1192.2,546.9 1199.9,548 1234.2,532.8 	"/>
	<line class="st2" x1="1199.9" y1="548" x2="1199.9" y2="615.1"/>
	<polyline class="st2" points="1234.2,542.4 1216,541.1 1216,607.9 	"/>
	<polyline class="st2" points="1199.9,566.5 1216,559 1234.2,560.3 	"/>
	<polygon class="st2" points="1192.2,628.5 1234.2,610.7 1234.2,673.8 1192.2,688.2 	"/>
	<polyline class="st2" points="1192.2,628.5 1199.9,630.2 1234.2,616.8 	"/>
	<line class="st2" x1="1199.9" y1="630.2" x2="1199.9" y2="685.4"/>
	<polyline class="st2" points="1234.2,627.4 1216,624.6 1216,679.5 	"/>
	<polygon class="st2" points="1192.2,701 1234.2,686.2 1234.2,749.2 1192.2,760.7 	"/>
	<polyline class="st2" points="1192.2,701 1199.9,702.4 1234.2,691 	"/>
	<line class="st2" x1="1199.9" y1="702.4" x2="1199.9" y2="758.8"/>
	<polyline class="st2" points="1234.2,702.1 1216,698.2 1216,754.8 	"/>
	<polygon class="st2" points="1192.2,771.3 1234.2,761.4 1234.2,823.4 1192.2,830.9 	"/>
	<polyline class="st2" points="1192.2,771.3 1199.9,773.4 1234.2,766.2 	"/>
	<line class="st2" x1="1199.9" y1="773.4" x2="1199.9" y2="829.8"/>
	<polyline class="st2" points="1234.2,776.3 1216,770.5 1216,827.3 	"/>
	<polygon class="st2" points="1192.2,843.4 1234.2,836.5 1234.2,900.9 1192.2,904.4 	"/>
	<polyline class="st2" points="1192.2,843.4 1199.9,845.5 1234.2,840.3 	"/>
	<line class="st2" x1="1199.9" y1="845.5" x2="1199.9" y2="904.4"/>
	<polyline class="st2" points="1234.2,848.4 1216,843.4 1216,902.4 	"/>
	<polygon class="st2" points="1192.2,913.8 1234.2,911.3 1234.2,975.3 1192.2,975.4 	"/>
	<polyline class="st2" points="1192.2,913.8 1199.9,916.7 1234.2,915.1 	"/>
	<line class="st2" x1="1199.9" y1="916.7" x2="1199.9" y2="975.4"/>
	<polyline class="st2" points="1234.2,923.3 1216,916.4 1216,975.3 	"/>
	<line class="st2" x1="1399.2" y1="417.9" x2="1399.2" y2="975.6"/>
	<polygon class="st2" points="1282.3,499.6 1282.3,578.4 1257.8,589.9 1257.8,512.5 	"/>
	<polyline class="st2" points="1257.8,512.5 1266.6,512.5 1282.3,504.8 	"/>
	<line class="st2" x1="1266.6" y1="512.5" x2="1266.6" y2="586.1"/>
	<line class="st2" x1="1266.6" y1="530.1" x2="1282.3" y2="521.2"/>
	<line class="st2" x1="1276.7" y1="524.4" x2="1276.7" y2="580.8"/>
	<polygon class="st2" points="1327.5,477 1327.7,558.6 1303.2,569 1303,489.8 	"/>
	<polyline class="st2" points="1303,489.8 1311.8,489.8 1327.5,482.2 	"/>
	<line class="st2" x1="1311.8" y1="489.8" x2="1312" y2="565.3"/>
	<line class="st2" x1="1311.8" y1="507.4" x2="1327.5" y2="498.6"/>
	<polygon class="st2" points="1351.7,465.4 1351.7,548 1377,536.5 1377,451.4 	"/>
	<polyline class="st2" points="1351.7,465.4 1361.8,466.6 1377,458.5 	"/>
	<line class="st2" x1="1361.8" y1="466.6" x2="1361.8" y2="543.4"/>
	<polyline class="st2" points="1361.8,476.4 1372.6,477 1377,474.7 	"/>
	<line class="st2" x1="1372.6" y1="477" x2="1372.6" y2="538.8"/>
	<polygon class="st2" points="1282.3,590 1282.3,658.1 1257.8,666.2 1257.8,600.1 	"/>
	<polyline class="st2" points="1257.8,600.1 1266.6,600.4 1282.3,594.4 	"/>
	<line class="st2" x1="1266.6" y1="600.4" x2="1266.6" y2="663.3"/>
	<line class="st2" x1="1266.6" y1="615.4" x2="1282.3" y2="608.5"/>
	<line class="st2" x1="1276.7" y1="610.9" x2="1276.7" y2="660"/>
	<polygon class="st2" points="1327.5,572.2 1327.7,642.2 1303.2,650.3 1303,582.4 	"/>
	<polyline class="st2" points="1303,582.4 1311.8,582.7 1327.5,576.7 	"/>
	<line class="st2" x1="1311.8" y1="582.7" x2="1312" y2="647.4"/>
	<line class="st2" x1="1311.8" y1="597.7" x2="1327.5" y2="590.7"/>
	<polygon class="st2" points="1351.7,563.2 1351.7,634.9 1377,626 1377,552.2 	"/>
	<polyline class="st2" points="1351.7,563.2 1361.8,564.7 1377,558.3 	"/>
	<line class="st2" x1="1361.8" y1="564.7" x2="1361.8" y2="631.1"/>
	<polyline class="st2" points="1361.8,573 1372.6,573.9 1377,572.1 	"/>
	<line class="st2" x1="1372.6" y1="573.9" x2="1372.6" y2="627.6"/>
	<polygon class="st2" points="1282.3,670.3 1282.3,738.5 1257.8,744.3 1257.8,678.2 	"/>
	<polyline class="st2" points="1257.8,678.2 1266.6,679.4 1282.3,674.8 	"/>
	<line class="st2" x1="1266.6" y1="679.4" x2="1266.6" y2="742.2"/>
	<line class="st2" x1="1266.6" y1="694.4" x2="1282.3" y2="688.8"/>
	<line class="st2" x1="1276.7" y1="690.8" x2="1276.7" y2="739.8"/>
	<polygon class="st2" points="1327.5,656.6 1327.7,726.6 1303.2,732.5 1303,664.6 	"/>
	<polyline class="st2" points="1303,664.6 1311.8,665.7 1327.5,661.1 	"/>
	<line class="st2" x1="1311.8" y1="665.7" x2="1312" y2="730.3"/>
	<line class="st2" x1="1311.8" y1="680.7" x2="1327.5" y2="675.1"/>
	<polygon class="st2" points="1351.7,649.8 1351.7,721.4 1377,714.8 1377,641 	"/>
	<polyline class="st2" points="1351.7,649.8 1361.8,652.1 1377,647.1 	"/>
	<line class="st2" x1="1361.8" y1="652.1" x2="1361.8" y2="718.5"/>
	<polyline class="st2" points="1361.8,660.4 1372.6,662.3 1377,660.9 	"/>
	<line class="st2" x1="1372.6" y1="662.3" x2="1372.6" y2="716"/>
	<polygon class="st2" points="1282.3,748.4 1282.3,815.6 1257.8,820 1257.8,753.9 	"/>
	<polyline class="st2" points="1257.8,753.9 1266.6,755.9 1282.3,752.8 	"/>
	<line class="st2" x1="1266.6" y1="755.9" x2="1266.6" y2="818.7"/>
	<line class="st2" x1="1266.6" y1="769.9" x2="1282.3" y2="766.9"/>
	<line class="st2" x1="1276.7" y1="767.3" x2="1276.7" y2="816.3"/>
	<polygon class="st2" points="1327.5,736.1 1327.7,808.1 1303.2,812.6 1303,741.7 	"/>
	<polyline class="st2" points="1303,741.7 1311.8,743.7 1327.5,740.6 	"/>
	<line class="st2" x1="1311.8" y1="743.7" x2="1312" y2="811.3"/>
	<line class="st2" x1="1311.8" y1="760.7" x2="1327.5" y2="757.6"/>
	<polygon class="st2" points="1351.7,728.7 1351.7,805.3 1377,801.2 1377,722.4 	"/>
	<line class="st2" x1="1361.8" y1="732" x2="1361.8" y2="804.5"/>
	<polyline class="st2" points="1361.8,746.3 1372.6,749.2 1377,748.3 	"/>
	<line class="st2" x1="1372.6" y1="749.2" x2="1372.6" y2="801.9"/>
	<polygon class="st2" points="1282.3,829 1282.3,897.1 1257.8,898.9 1257.8,832.8 	"/>
	<polyline class="st2" points="1257.8,832.8 1266.6,835.4 1282.3,833.4 	"/>
	<line class="st2" x1="1266.6" y1="835.4" x2="1266.6" y2="898.3"/>
	<line class="st2" x1="1266.6" y1="849.4" x2="1282.3" y2="847.5"/>
	<line class="st2" x1="1276.7" y1="848.5" x2="1276.7" y2="897.5"/>
	<polygon class="st2" points="1327.5,822.8 1327.7,893.7 1303.2,895.5 1303,826.7 	"/>
	<polyline class="st2" points="1303,826.7 1311.8,829.3 1327.5,827.3 	"/>
	<line class="st2" x1="1311.8" y1="829.3" x2="1312" y2="894.8"/>
	<line class="st2" x1="1311.8" y1="843.3" x2="1327.5" y2="841.3"/>
	<polygon class="st2" points="1351.7,820 1351.7,891.7 1377,889.7 1377,815.5 	"/>
	<polyline class="st2" points="1351.7,820 1361.8,824.1 1377,821.6 	"/>
	<line class="st2" x1="1361.8" y1="824.1" x2="1361.8" y2="890.5"/>
	<polyline class="st2" points="1361.8,832.4 1372.6,836 1377,835.4 	"/>
	<line class="st2" x1="1372.6" y1="836" x2="1372.6" y2="890.2"/>
	<polygon class="st2" points="1282.3,908 1282.3,975.4 1257.8,975.3 1257.8,909.2 	"/>
	<polyline class="st2" points="1257.8,909.2 1266.6,912.7 1282.3,912.4 	"/>
	<line class="st2" x1="1266.6" y1="912.7" x2="1266.6" y2="975.6"/>
	<line class="st2" x1="1266.6" y1="926.8" x2="1282.3" y2="926.4"/>
	<line class="st2" x1="1276.7" y1="926.9" x2="1276.7" y2="975.4"/>
	<polygon class="st2" points="1327.5,906.6 1327.7,975.4 1303.2,975.4 1303,907.8 	"/>
	<polyline class="st2" points="1303,907.8 1311.8,911.4 1327.5,911 	"/>
	<line class="st2" x1="1311.8" y1="911.4" x2="1312" y2="975.4"/>
	<line class="st2" x1="1311.8" y1="925.4" x2="1327.5" y2="925.1"/>
	<polygon class="st2" points="1351.7,906.3 1351.7,975.4 1377,975.4 1377,904.4 	"/>
	<polyline class="st2" points="1351.7,906.3 1361.8,911.4 1377,910.4 	"/>
	<line class="st2" x1="1361.8" y1="911.4" x2="1361.8" y2="975.4"/>
	<polyline class="st2" points="1361.8,919.7 1372.6,924.4 1377,924.2 	"/>
	<line class="st2" x1="1372.6" y1="924.4" x2="1372.6" y2="975.4"/>
	<polyline class="st2" points="1477.5,426.1 1447.4,420.6 1408.2,441.2 1399.2,440.2 	"/>
	<line class="st2" x1="1447.4" y1="420.6" x2="1447.4" y2="502.2"/>
	<polyline class="st2" points="1399.2,544.7 1406.7,546.6 1447.4,528.7 1477.5,533.7 	"/>
	<line class="st2" x1="1408.2" y1="441.2" x2="1408.2" y2="522.3"/>
	<line class="st2" x1="1406.7" y1="546.6" x2="1406.7" y2="612.4"/>
	<line class="st2" x1="1406.7" y1="636.1" x2="1406.7" y2="703.2"/>
	<line class="st2" x1="1447.4" y1="528.7" x2="1447.4" y2="596.5"/>
	<line class="st2" x1="1447.4" y1="621.9" x2="1447.4" y2="691.6"/>
	<polyline class="st2" points="1477.5,717.2 1447.4,716.7 1447.4,786.7 	"/>
	<line class="st2" x1="1448.4" y1="899.8" x2="1448.4" y2="975.6"/>
	<polyline class="st2" points="1399.2,725 1406.7,726.1 1447.4,716.7 	"/>
	<line class="st2" x1="1406.7" y1="726.1" x2="1406.7" y2="793.6"/>
	<polyline class="st2" points="1399.2,814.3 1406.7,815.7 1447.4,810.2 	"/>
	<line class="st2" x1="1406.7" y1="815.7" x2="1406.7" y2="883.8"/>
	<line class="st2" x1="1409.7" y1="901.8" x2="1409.7" y2="975.6"/>
	<polyline class="st2" points="1411,521.6 1411,447.3 1437.3,434.1 1437.3,507.4 	"/>
	<polyline class="st2" points="1411,610.2 1411,551.3 1437.3,539.8 1437.3,600.4 	"/>
	<polyline class="st2" points="1411,701.9 1411,642.9 1437.3,634.6 1437.3,695.2 	"/>
	<polyline class="st2" points="1411,792.3 1411,733.4 1437.3,727.4 1437.3,788 	"/>
	<polyline class="st2" points="1411,883.7 1411,821 1437.3,818.7 1437.3,881.7 	"/>
	<polyline class="st2" points="1413.5,975.6 1413.5,912.8 1437.3,912.3 1437.3,975.2 	"/>
	<line class="st2" x1="1726.6" y1="411.6" x2="1726.6" y2="434.1"/>
	<polyline class="st2" points="1726.6,518.4 1726.6,539.3 1656.6,553 1477.6,525 	"/>
	<polyline class="st2" points="1726.6,610.5 1726.6,630.3 1656.6,644.6 1477.6,616.7 	"/>
	<polyline class="st2" points="1726.6,701.9 1726.6,722 1656.6,730.7 1477.6,712.7 	"/>
	<polyline class="st2" points="1726.6,793 1726.6,812.7 1654.9,818 1478.2,807.3 1447.4,810.2 1447.4,881 	"/>
	<line class="st2" x1="1726.6" y1="885.6" x2="1726.6" y2="904.9"/>
	<polyline class="st2" points="1351.7,728.7 1361.8,732 1377,728.5 	"/>
</g>
<g id="Budynke_x5F_2">
	<polyline class="st2" points="1009.9,523.6 1088,530.9 1088,975.6 1010,975.6 	"/>
	<polyline class="st2" points="1088,537.1 1121.4,540.2 1121.4,975.6 1088,975.6 	"/>
	<path class="st2" d="M1121.4,557.2c0,0,4.8,6.6,20.3,6.6v410.4h-20.3"/>
	<polyline class="st2" points="1141.6,587.2 1147.7,588.5 1147.7,972 1141.4,972 	"/>
	<polyline class="st2" points="1010,543.5 1026.5,544.5 1026.5,613.7 1010,613.7 	"/>
	<line class="st2" x1="1026.5" y1="588.9" x2="1009.9" y2="588.9"/>
	<line class="st2" x1="1026.5" y1="561.4" x2="1009.9" y2="560.9"/>
	<polyline class="st2" points="1010,624.2 1026.5,625.3 1026.5,682 1010,682 	"/>
	<line class="st2" x1="1026.5" y1="657.2" x2="1009.9" y2="657.2"/>
	<polyline class="st2" points="1010,694.4 1026.5,695.4 1026.5,752.2 1010,752.2 	"/>
	<line class="st2" x1="1026.5" y1="727.3" x2="1009.9" y2="727.3"/>
	<polyline class="st2" points="1010,764.6 1026.5,765.6 1026.5,822.4 1010,822.4 	"/>
	<line class="st2" x1="1026.5" y1="797.5" x2="1009.9" y2="797.5"/>
	<polyline class="st2" points="1010,834.9 1026.5,836 1026.5,892.7 1010,892.7 	"/>
	<line class="st2" x1="1026.5" y1="867.9" x2="1009.9" y2="867.9"/>
	<polyline class="st2" points="1010,906.5 1026.5,906.5 1026.5,963.2 1010,963.2 	"/>
	<line class="st2" x1="1026.5" y1="938.4" x2="1009.9" y2="938.4"/>
	<line class="st2" x1="1088" y1="617.1" x2="1121.4" y2="618.3"/>
	<line class="st2" x1="1088" y1="686.7" x2="1121.4" y2="688"/>
	<line class="st2" x1="1088" y1="754.5" x2="1121.4" y2="755.8"/>
	<line class="st2" x1="1087.9" y1="823.8" x2="1121.3" y2="824.2"/>
	<line class="st2" x1="1087.9" y1="892.8" x2="1121.3" y2="893.2"/>
	<path class="st2" d="M1088,551.8l33.4,1.3c0,0-18.3,2.6-16.2,13.2c2,10.6,16.3,9.9,16.3,9.9"/>
	<path class="st2" d="M1121.4,573.3c0,0,4.9,3.3,20,5.3"/>
	<path class="st2" d="M1088,630.3l33.4,1.1c0,0-18.3,2.2-16.2,11.3c2,9.1,16.3,8.6,16.3,8.6"/>
	<path class="st2" d="M1121.1,649.3c0,0,5.3,5.4,20.6,5.1"/>
	<path class="st2" d="M1121.1,636.6c0,0,5.3,5.4,20.6,5.1"/>
	<path class="st2" d="M1088,699l33.4,0.9c0,0-18.3,1.7-16.2,8.7c2,7,16.3,6.6,16.3,6.6"/>
	<path class="st2" d="M1121.1,718.1c0,0,5.3,2.6,20.6,2.3"/>
	<path class="st2" d="M1121.1,703.6c0,0,5.3,2.6,20.6,2.3"/>
	<path class="st2" d="M1088,768l33.4,0.6c0,0-18.3,1.2-16.2,6.3c2,5,16.3,4.7,16.3,4.7"/>
	<path class="st2" d="M1088,836.3l33.4,0.5c0,0-18.3,1-16.2,5c2,4.1,16.3,3.8,16.3,3.8"/>
	<line class="st2" x1="1088" y1="906.9" x2="1121.4" y2="907.4"/>
	<path class="st2" d="M1121.1,848.6c0,0,5.3,2.6,20.6,2.3"/>
	<path class="st2" d="M1121.1,782.3c0,0,5.3,2.6,20.6,2.3"/>
	<path class="st2" d="M1121.1,910.5c0,0,5.3,2.6,20.6,2.3"/>
	<path class="st2" d="M1121.1,899.5c0,0,5.3,2.6,20.6,2.3"/>
	<path class="st2" d="M1121.1,835.1c0,0,5.3,2.6,20.6,2.3"/>
	<path class="st2" d="M1121.1,770.8c0,0,5.3,2.6,20.6,2.3"/>
</g>
<g id="Budynek_x5F_1">
	<path class="st2" d="M1010,471.6v504h-65.1H336c0,0,0.4-16.9,0.4-15.7V360.2l227.9-11.9l223.7,1.5c0,0,77.4,52.1,155.5,70.5
		C943.4,420.3,939.6,462.4,1010,471.6"/>
	<line class="st2" x1="560.4" y1="348.3" x2="560.4" y2="974.9"/>
	<polygon class="st2" points="516.8,473.2 372,478.1 372,381.2 380.4,380.8 516.8,374.3 	"/>
	<line class="st2" x1="381" y1="477.9" x2="381" y2="380.9"/>
	<line class="st2" x1="454.2" y1="377.4" x2="454.2" y2="475.1"/>
	<line class="st2" x1="471.2" y1="376.5" x2="471.2" y2="474.9"/>
	<polygon class="st2" points="516.8,571.2 372,576.1 372,494.6 380.4,494.2 516.8,487.7 	"/>
	<line class="st2" x1="381" y1="576" x2="381" y2="494.2"/>
	<line class="st2" x1="454.2" y1="490.8" x2="454.2" y2="573.1"/>
	<line class="st2" x1="471.2" y1="489.8" x2="471.2" y2="572.9"/>
	<polygon class="st2" points="516.8,669.2 372,674.2 372,592.6 380.4,592.2 516.8,585.7 	"/>
	<line class="st2" x1="381" y1="674" x2="381" y2="592.2"/>
	<line class="st2" x1="454.2" y1="588.8" x2="454.2" y2="671.1"/>
	<line class="st2" x1="471.2" y1="587.8" x2="471.2" y2="670.9"/>
	<polygon class="st2" points="516.8,767.2 372,772.2 372,690.6 380.4,690.2 516.8,683.7 	"/>
	<line class="st2" x1="381" y1="772" x2="381" y2="690.2"/>
	<line class="st2" x1="454.2" y1="686.8" x2="454.2" y2="769.1"/>
	<line class="st2" x1="471.2" y1="685.8" x2="471.2" y2="768.9"/>
	<polygon class="st2" points="516.8,865.2 372,870.2 372,788.6 380.4,788.2 516.8,781.8 	"/>
	<line class="st2" x1="381" y1="870" x2="381" y2="788.3"/>
	<line class="st2" x1="454.2" y1="784.8" x2="454.2" y2="867.1"/>
	<line class="st2" x1="471.2" y1="783.9" x2="471.2" y2="866.9"/>
	<polygon class="st2" points="516.8,968.9 372,968.2 372,886.7 380.4,886.3 516.8,882.2 	"/>
	<line class="st2" x1="381" y1="968" x2="381" y2="886.3"/>
	<line class="st2" x1="454.2" y1="884.2" x2="454.2" y2="968.3"/>
	<line class="st2" x1="471.2" y1="883.8" x2="471.2" y2="968.7"/>
	<line class="st2" x1="787.9" y1="349.8" x2="787.9" y2="374.3"/>
	<line class="st2" x1="787.9" y1="466.7" x2="787.9" y2="488.6"/>
	<line class="st2" x1="787.9" y1="564.3" x2="787.9" y2="587.6"/>
	<line class="st2" x1="787.9" y1="664.7" x2="787.9" y2="686.8"/>
	<line class="st2" x1="787.9" y1="763.8" x2="787.9" y2="785.5"/>
	<line class="st2" x1="787.9" y1="862.6" x2="787.9" y2="883"/>
	<path class="st2" d="M560.4,466.7h227.5c0,0,34.6,17.5,76.2,32.7c41.6,15.2,79.3,24.1,79.3,24.1v452.1"/>
	<path class="st2" d="M560.4,564.3h227.5c0,0,34,15.3,76.2,28.6c42.4,13.4,79.3,17.6,79.3,17.6"/>
	<path class="st2" d="M560.4,664.7h227.5c0,0,33.2,9.6,76.2,20.2c45.3,11.3,79.3,13.1,79.3,13.1"/>
	<path class="st2" d="M560.4,763.8h227.5c0,0,32.4,7.2,76.2,13.8c48.7,7.3,79.3,8.8,79.3,8.8"/>
	<path class="st2" d="M560.4,862.6h227.5c0,0,30.6,4.2,76.2,7.7c51.1,3.9,79.3,4.3,79.3,4.3"/>
	<path class="st2" d="M943.4,534.1c0,0,4.2,18.5,66.6,30.1"/>
	<path class="st2" d="M943.4,619.5c0,0,4.2,12.5,66.6,24.2"/>
	<path class="st2" d="M943.4,640.5c0,0,3.7,10,66.6,19.9"/>
	<path class="st2" d="M943.4,704.6c0,0,2.3,8.2,66.6,18.7"/>
	<path class="st2" d="M943.4,725.3c0,0,1.9,7.5,66.6,14.9"/>
	<path class="st2" d="M943.4,790.1c0,0,4.9,7.7,66.6,11.6"/>
	<path class="st2" d="M943.4,809.2c0,0,4.9,4.8,66.6,8.8"/>
	<path class="st2" d="M943.4,894c0,0,3.8,3.1,66.6,4.4"/>
	<path class="st2" d="M943.4,876.6c0,0,4.7,4.8,66.6,6.4"/>
	<rect x="564.1" y="383.9" class="st2" width="154.5" height="82.9"/>
	<line class="st2" x1="594.5" y1="383.9" x2="594.5" y2="466.7"/>
	<line class="st2" x1="624.2" y1="383.9" x2="624.2" y2="466.7"/>
	<line class="st2" x1="594.5" y1="399.3" x2="564.1" y2="399.3"/>
	<line class="st2" x1="718.6" y1="399.3" x2="624.2" y2="399.3"/>
	<line class="st2" x1="653" y1="399.3" x2="653" y2="466.7"/>
	<g>
		<rect x="564.1" y="488.6" class="st2" width="154.5" height="75.6"/>
		<line class="st2" x1="594.5" y1="488.6" x2="594.5" y2="564.3"/>
		<line class="st2" x1="624.2" y1="488.6" x2="624.2" y2="564.3"/>
		<line class="st2" x1="594.5" y1="496.9" x2="564.1" y2="496.9"/>
		<line class="st2" x1="718.6" y1="496.9" x2="624.2" y2="496.9"/>
		<line class="st2" x1="653" y1="496.9" x2="653" y2="564.3"/>
	</g>
	<g>
		<rect x="564.1" y="587.6" class="st2" width="154.5" height="77.1"/>
		<line class="st2" x1="594.5" y1="587.6" x2="594.5" y2="664.7"/>
		<line class="st2" x1="624.2" y1="587.6" x2="624.2" y2="664.7"/>
		<line class="st2" x1="594.5" y1="597.3" x2="564.1" y2="597.3"/>
		<line class="st2" x1="718.6" y1="597.3" x2="624.2" y2="597.3"/>
		<line class="st2" x1="653" y1="597.3" x2="653" y2="664.7"/>
	</g>
	<path class="st2" d="M560.4,374.3h227.5c0,0,50.9,41.2,155.7,66.7"/>
	<path class="st2" d="M943.7,542.4c-108.8-24.9-155.7-53.8-155.7-53.8H560.4"/>
	<path class="st2" d="M560.4,587.6h227.5c0,0,35.2,21.2,155.7,42.3"/>
	<g>
		<rect x="564.1" y="686.7" class="st2" width="154.5" height="77.1"/>
		<line class="st2" x1="594.5" y1="686.7" x2="594.5" y2="763.8"/>
		<line class="st2" x1="624.2" y1="686.7" x2="624.2" y2="763.8"/>
		<line class="st2" x1="594.5" y1="696.4" x2="564.1" y2="696.4"/>
		<line class="st2" x1="718.6" y1="696.4" x2="624.2" y2="696.4"/>
		<line class="st2" x1="653" y1="696.4" x2="653" y2="763.8"/>
	</g>
	<path class="st2" d="M560.4,686.7h227.5c0,0,33.3,13.9,155.7,31.2"/>
	<g>
		<rect x="564.1" y="785.5" class="st2" width="154.5" height="77.1"/>
		<line class="st2" x1="594.5" y1="785.5" x2="594.5" y2="862.6"/>
		<line class="st2" x1="624.2" y1="785.5" x2="624.2" y2="862.6"/>
		<line class="st2" x1="594.5" y1="795.2" x2="564.1" y2="795.2"/>
		<line class="st2" x1="718.6" y1="795.2" x2="624.2" y2="795.2"/>
		<line class="st2" x1="653" y1="795.2" x2="653" y2="862.6"/>
	</g>
	<g>
		<rect x="564.1" y="883" class="st2" width="154.5" height="92.6"/>
		<line class="st2" x1="594.5" y1="883" x2="594.5" y2="975.6"/>
		<line class="st2" x1="624.2" y1="883" x2="624.2" y2="975.6"/>
		<line class="st2" x1="594.5" y1="892.7" x2="564.1" y2="892.7"/>
		<line class="st2" x1="718.6" y1="892.7" x2="624.2" y2="892.7"/>
		<line class="st2" x1="653" y1="892.7" x2="653" y2="975.6"/>
	</g>
	<path class="st2" d="M560.4,785.5h227.5c0,0,31.5,6.6,155.7,18.4"/>
	<path class="st2" d="M943.4,420.3v32.8c0,4.1,1.4,8.1,4.1,11.2c6.3,7.3,22.3,18.1,62.5,24.3h-35.6l-148.1-61.8h-21.2"/>
	<path class="st2" d="M943.4,553.7c0,0,2.4,17.3,66.6,27.2"/>
	<polyline class="st2" points="799.9,472.8 799.9,416.8 769,391.9 769,466.7 	"/>
	<line class="st2" x1="769" y1="407.7" x2="799.9" y2="431.3"/>
	<polyline class="st2" points="799.9,569.4 799.9,526.7 769,504.8 769,564.3 	"/>
	<line class="st2" x1="769" y1="520.6" x2="799.9" y2="541.2"/>
	<polyline class="st2" points="833.7,487.5 833.7,439.9 873.9,455.9 873.9,502.9 	"/>
	<polyline class="st2" points="882.8,505.9 882.8,459.8 915.3,472.8 915.3,516 	"/>
	<line class="st2" x1="833.7" y1="455.9" x2="873.9" y2="471.9"/>
	<line class="st2" x1="862.3" y1="467.3" x2="862.3" y2="498.7"/>
	<line class="st2" x1="882.8" y1="474.2" x2="915.3" y2="487.2"/>
	<line class="st2" x1="902.8" y1="482.2" x2="902.8" y2="512.3"/>
	<polyline class="st2" points="936.1,521.7 936.1,480.7 974.3,497.2 974.3,555 	"/>
	<polyline class="st2" points="805.1,475 805.1,409.8 760.5,374.3 760.5,466.7 	"/>
	<line class="st2" x1="826.3" y1="426.8" x2="826.3" y2="484.4"/>
	<line class="st2" x1="974.3" y1="497.2" x2="974.3" y2="488.6"/>
	<polyline class="st2" points="805.1,571.6 805.1,517.7 760.5,488.6 	"/>
	<polyline class="st2" points="805.1,530.9 826.3,530.1 826.3,579.8 	"/>
	<polyline class="st2" points="826.3,530.1 860.8,542.4 860.8,591.8 	"/>
	<line class="st2" x1="860.8" y1="542.4" x2="943.7" y2="542.4"/>
	<polyline class="st2" points="1003.6,579.8 974.3,580.9 943.4,569.4 	"/>
	<line class="st2" x1="974.3" y1="580.9" x2="974.3" y2="635"/>
	<polyline class="st2" points="943.4,579.8 968.9,587.6 968.9,633.5 	"/>
	<polyline class="st2" points="1010,660.4 974.3,662.7 943.4,651.3 	"/>
	<line class="st2" x1="974.3" y1="662.7" x2="974.3" y2="716.9"/>
	<polyline class="st2" points="943.4,661.7 968.9,669.4 968.9,715.4 	"/>
	<polyline class="st2" points="943.4,746.7 968.9,751.3 968.9,797.2 	"/>
	<polyline class="st2" points="831.6,581.8 831.6,542.4 855.8,551.7 855.8,590.2 	"/>
	<line class="st2" x1="849.4" y1="549.2" x2="849.4" y2="588.1"/>
	<line class="st2" x1="760.5" y1="488.6" x2="760.5" y2="564.3"/>
	<polyline class="st2" points="760.5,664.7 760.5,588.1 805.1,608.7 805.1,669.5 	"/>
	<polyline class="st2" points="805.1,621 826.3,620 826.3,675.2 	"/>
	<polyline class="st2" points="826.3,620 860.8,629.9 943.7,629.9 	"/>
	<line class="st2" x1="860.8" y1="629.9" x2="860.8" y2="684.1"/>
	<polyline class="st2" points="767.7,664.7 767.7,602 798.2,616.5 798.2,667.6 	"/>
	<polyline class="st2" points="760.5,763.4 760.5,686.8 805.1,707.5 805.1,767.4 	"/>
	<polyline class="st2" points="767.7,763.4 767.7,700.8 798.2,715.2 798.2,766.3 	"/>
	<polyline class="st2" points="833.7,677.1 833.7,633.5 855.8,639 855.8,682.8 	"/>
	<line class="st2" x1="849.4" y1="637.4" x2="849.4" y2="681.2"/>
	<polyline class="st2" points="805.1,710.6 826.3,709.4 860.8,716.9 943.7,717.9 	"/>
	<line class="st2" x1="860.8" y1="716.9" x2="860.8" y2="777.2"/>
	<line class="st2" x1="826.3" y1="709.4" x2="826.3" y2="771.4"/>
	<polyline class="st2" points="833.7,772.7 833.7,721 855.8,725.3 855.8,776.4 	"/>
	<line class="st2" x1="849.4" y1="724" x2="849.4" y2="775.3"/>
	<polyline class="st2" points="1010,740.2 974.3,739.4 943.7,732.7 	"/>
	<line class="st2" x1="974.3" y1="739.4" x2="974.3" y2="798.4"/>
	<polyline class="st2" points="760.5,862.6 760.5,785.5 805.1,794.7 805.1,864.7 	"/>
	<polyline class="st2" points="805.1,799.7 826.3,798.4 826.3,867 	"/>
	<polyline class="st2" points="826.3,798.4 860.8,803.9 860.8,870.1 	"/>
	<line class="st2" x1="860.8" y1="803.9" x2="943.7" y2="803.9"/>
	<polyline class="st2" points="1010,818 974.3,819.1 974.3,881.4 	"/>
	<line class="st2" x1="974.3" y1="819.1" x2="943.4" y2="814.8"/>
	<polyline class="st2" points="943.7,825.1 968.9,827.6 968.9,881 	"/>
	<polyline class="st2" points="767.7,862.6 767.7,797.2 798.2,803.9 798.2,863.9 	"/>
	<polyline class="st2" points="832.1,867.6 832.1,810.3 855.8,813.6 855.8,869.7 	"/>
	<line class="st2" x1="849.4" y1="812.7" x2="849.4" y2="868.6"/>
	<polyline class="st2" points="760.4,975.6 760.4,883 804.3,887.9 804.3,975.6 	"/>
	<polyline class="st2" points="768.3,975.6 768.3,894 794.5,896.2 794.5,975.6 	"/>
	<polyline class="st2" points="804.3,890.6 831,890.6 831,975.6 	"/>
	<polyline class="st2" points="831,890.6 860.8,892.7 860.8,975.6 	"/>
	<path class="st2" d="M860.8,892.7l82.8-2.1c-124.6,0-155.7-7.6-155.7-7.6H560.4"/>
	<polyline class="st2" points="833.7,975.6 833.7,901 855.8,902.4 855.8,975.6 	"/>
	<line class="st2" x1="849.2" y1="902" x2="849.2" y2="975.6"/>
	<line class="st2" x1="974.3" y1="897.3" x2="974.3" y2="975.6"/>
	<polyline class="st2" points="968.9,975.6 968.9,907 943.4,907 	"/>
</g>
<g id="Layer_2">
</g>
</svg>
